<svg width="200" height="200" viewBox="0 0 200 200" fill="none" xmlns="http://www.w3.org/2000/svg">
<g clip-path="url(#clip0_36_317)">
<path d="M100 0C109.18 0 118.034 1.17188 126.562 3.51562C135.091 5.85938 143.034 9.24479 150.391 13.6719C157.747 18.099 164.486 23.3073 170.605 29.2969C176.725 35.2865 181.966 42.0247 186.328 49.5117C190.69 56.9987 194.043 64.974 196.387 73.4375C198.73 81.901 199.935 90.7552 200 100C200 109.18 198.828 118.034 196.484 126.562C194.141 135.091 190.755 143.034 186.328 150.391C181.901 157.747 176.693 164.486 170.703 170.605C164.714 176.725 157.975 181.966 150.488 186.328C143.001 190.69 135.026 194.043 126.562 196.387C118.099 198.73 109.245 199.935 100 200C90.8203 200 81.9661 198.828 73.4375 196.484C64.9089 194.141 56.9661 190.755 49.6094 186.328C42.2526 181.901 35.5143 176.693 29.3945 170.703C23.2747 164.714 18.0339 157.975 13.6719 150.488C9.3099 143.001 5.95703 135.026 3.61328 126.562C1.26953 118.099 0.0651042 109.245 0 100C0 90.8203 1.17188 81.9661 3.51562 73.4375C5.85938 64.9089 9.24479 56.9661 13.6719 49.6094C18.099 42.2526 23.3073 35.5143 29.2969 29.3945C35.2865 23.2747 42.0247 18.0339 49.5117 13.6719C56.9987 9.3099 64.974 5.95703 73.4375 3.61328C81.901 1.26953 90.7552 0.0651042 100 0ZM158.887 66.8945L145.605 53.6133L81.25 117.969L54.3945 91.1133L41.1133 104.395L81.25 144.531L158.887 66.8945Z" fill="#590C29"/>
</g>
<defs>
<clipPath id="clip0_36_317">
<rect width="200" height="200" fill="white"/>
</clipPath>
</defs>
</svg>
