<svg width="428" height="42" viewBox="0 0 428 42" fill="none" xmlns="http://www.w3.org/2000/svg">
<path d="M15.3411 27.1957L15.3402 27.1948L8.80614 21.2855L15.3337 15.5844L15.3338 15.5845L15.3411 15.5778C15.7277 15.2263 15.7659 14.6323 15.4433 14.2381L15.4351 14.228L15.4263 14.2184C15.0749 13.8317 14.4808 13.7936 14.0866 14.1161L14.0801 14.1215L14.0738 14.127L7.4222 19.9536L7.4222 19.9536L7.42085 19.9548C6.61654 20.6645 6.59017 21.8708 7.39759 22.607L7.39909 22.6083L14.0497 28.6231C14.0499 28.6233 14.0501 28.6235 14.0504 28.6237C14.4486 28.985 15.0561 28.9434 15.4091 28.5551C15.7711 28.1569 15.7297 27.5489 15.3411 27.1957Z" fill="black" stroke="black"/>
<path d="M170.359 22.032C170.359 21.012 170.563 20.118 170.971 19.35C171.391 18.57 171.967 17.97 172.699 17.55C173.431 17.13 174.271 16.92 175.219 16.92C176.419 16.92 177.409 17.208 178.189 17.784C178.981 18.348 179.515 19.158 179.791 20.214H177.577C177.397 19.722 177.109 19.338 176.713 19.062C176.317 18.786 175.819 18.648 175.219 18.648C174.379 18.648 173.707 18.948 173.203 19.548C172.711 20.136 172.465 20.964 172.465 22.032C172.465 23.1 172.711 23.934 173.203 24.534C173.707 25.134 174.379 25.434 175.219 25.434C176.407 25.434 177.193 24.912 177.577 23.868H179.791C179.503 24.876 178.963 25.68 178.171 26.28C177.379 26.868 176.395 27.162 175.219 27.162C174.271 27.162 173.431 26.952 172.699 26.532C171.967 26.1 171.391 25.5 170.971 24.732C170.563 23.952 170.359 23.052 170.359 22.032ZM186.138 27.162C185.202 27.162 184.356 26.952 183.6 26.532C182.844 26.1 182.25 25.5 181.818 24.732C181.386 23.952 181.17 23.052 181.17 22.032C181.17 21.024 181.392 20.13 181.836 19.35C182.28 18.57 182.886 17.97 183.654 17.55C184.422 17.13 185.28 16.92 186.228 16.92C187.176 16.92 188.034 17.13 188.802 17.55C189.57 17.97 190.176 18.57 190.62 19.35C191.064 20.13 191.286 21.024 191.286 22.032C191.286 23.04 191.058 23.934 190.602 24.714C190.146 25.494 189.522 26.1 188.73 26.532C187.95 26.952 187.086 27.162 186.138 27.162ZM186.138 25.38C186.666 25.38 187.158 25.254 187.614 25.002C188.082 24.75 188.46 24.372 188.748 23.868C189.036 23.364 189.18 22.752 189.18 22.032C189.18 21.312 189.042 20.706 188.766 20.214C188.49 19.71 188.124 19.332 187.668 19.08C187.212 18.828 186.72 18.702 186.192 18.702C185.664 18.702 185.172 18.828 184.716 19.08C184.272 19.332 183.918 19.71 183.654 20.214C183.39 20.706 183.258 21.312 183.258 22.032C183.258 23.1 183.528 23.928 184.068 24.516C184.62 25.092 185.31 25.38 186.138 25.38ZM198.319 16.92C199.099 16.92 199.795 17.082 200.407 17.406C201.031 17.73 201.517 18.21 201.865 18.846C202.213 19.482 202.387 20.25 202.387 21.15V27H200.353V21.456C200.353 20.568 200.131 19.89 199.687 19.422C199.243 18.942 198.637 18.702 197.869 18.702C197.101 18.702 196.489 18.942 196.033 19.422C195.589 19.89 195.367 20.568 195.367 21.456V27H193.315V17.082H195.367V18.216C195.703 17.808 196.129 17.49 196.645 17.262C197.173 17.034 197.731 16.92 198.319 16.92ZM204.32 22.032C204.32 21.012 204.524 20.118 204.932 19.35C205.352 18.57 205.928 17.97 206.66 17.55C207.392 17.13 208.232 16.92 209.18 16.92C210.38 16.92 211.37 17.208 212.15 17.784C212.942 18.348 213.476 19.158 213.752 20.214H211.538C211.358 19.722 211.07 19.338 210.674 19.062C210.278 18.786 209.78 18.648 209.18 18.648C208.34 18.648 207.668 18.948 207.164 19.548C206.672 20.136 206.426 20.964 206.426 22.032C206.426 23.1 206.672 23.934 207.164 24.534C207.668 25.134 208.34 25.434 209.18 25.434C210.368 25.434 211.154 24.912 211.538 23.868H213.752C213.464 24.876 212.924 25.68 212.132 26.28C211.34 26.868 210.356 27.162 209.18 27.162C208.232 27.162 207.392 26.952 206.66 26.532C205.928 26.1 205.352 25.5 204.932 24.732C204.524 23.952 204.32 23.052 204.32 22.032ZM217.849 13.68V27H215.797V13.68H217.849ZM229.525 17.082V27H227.473V25.83C227.149 26.238 226.723 26.562 226.195 26.802C225.679 27.03 225.127 27.144 224.539 27.144C223.759 27.144 223.057 26.982 222.433 26.658C221.821 26.334 221.335 25.854 220.975 25.218C220.627 24.582 220.453 23.814 220.453 22.914V17.082H222.487V22.608C222.487 23.496 222.709 24.18 223.153 24.66C223.597 25.128 224.203 25.362 224.971 25.362C225.739 25.362 226.345 25.128 226.789 24.66C227.245 24.18 227.473 23.496 227.473 22.608V17.082H229.525ZM233.277 15.768C232.905 15.768 232.593 15.642 232.341 15.39C232.089 15.138 231.963 14.826 231.963 14.454C231.963 14.082 232.089 13.77 232.341 13.518C232.593 13.266 232.905 13.14 233.277 13.14C233.637 13.14 233.943 13.266 234.195 13.518C234.447 13.77 234.573 14.082 234.573 14.454C234.573 14.826 234.447 15.138 234.195 15.39C233.943 15.642 233.637 15.768 233.277 15.768ZM234.285 17.082V27H232.233V17.082H234.285ZM236.295 21.996C236.295 21 236.499 20.118 236.907 19.35C237.327 18.582 237.891 17.988 238.599 17.568C239.319 17.136 240.117 16.92 240.993 16.92C241.641 16.92 242.277 17.064 242.901 17.352C243.537 17.628 244.041 18 244.413 18.468V13.68H246.483V27H244.413V25.506C244.077 25.986 243.609 26.382 243.009 26.694C242.421 27.006 241.743 27.162 240.975 27.162C240.111 27.162 239.319 26.946 238.599 26.514C237.891 26.07 237.327 25.458 236.907 24.678C236.499 23.886 236.295 22.992 236.295 21.996ZM244.413 22.032C244.413 21.348 244.269 20.754 243.981 20.25C243.705 19.746 243.339 19.362 242.883 19.098C242.427 18.834 241.935 18.702 241.407 18.702C240.879 18.702 240.387 18.834 239.931 19.098C239.475 19.35 239.103 19.728 238.815 20.232C238.539 20.724 238.401 21.312 238.401 21.996C238.401 22.68 238.539 23.28 238.815 23.796C239.103 24.312 239.475 24.708 239.931 24.984C240.399 25.248 240.891 25.38 241.407 25.38C241.935 25.38 242.427 25.248 242.883 24.984C243.339 24.72 243.705 24.336 243.981 23.832C244.269 23.316 244.413 22.716 244.413 22.032ZM253.48 27.162C252.544 27.162 251.698 26.952 250.942 26.532C250.186 26.1 249.592 25.5 249.16 24.732C248.728 23.952 248.512 23.052 248.512 22.032C248.512 21.024 248.734 20.13 249.178 19.35C249.622 18.57 250.228 17.97 250.996 17.55C251.764 17.13 252.622 16.92 253.57 16.92C254.518 16.92 255.376 17.13 256.144 17.55C256.912 17.97 257.518 18.57 257.962 19.35C258.406 20.13 258.628 21.024 258.628 22.032C258.628 23.04 258.4 23.934 257.944 24.714C257.488 25.494 256.864 26.1 256.072 26.532C255.292 26.952 254.428 27.162 253.48 27.162ZM253.48 25.38C254.008 25.38 254.5 25.254 254.956 25.002C255.424 24.75 255.802 24.372 256.09 23.868C256.378 23.364 256.522 22.752 256.522 22.032C256.522 21.312 256.384 20.706 256.108 20.214C255.832 19.71 255.466 19.332 255.01 19.08C254.554 18.828 254.062 18.702 253.534 18.702C253.006 18.702 252.514 18.828 252.058 19.08C251.614 19.332 251.26 19.71 250.996 20.214C250.732 20.706 250.6 21.312 250.6 22.032C250.6 23.1 250.87 23.928 251.41 24.516C251.962 25.092 252.652 25.38 253.48 25.38Z" fill="black"/>
</svg>
