<svg width="150" height="150" viewBox="0 0 150 150" fill="none" xmlns="http://www.w3.org/2000/svg">
<circle cx="75" cy="75" r="75" fill="black"/>
<path d="M80.8125 84.375C68.2969 84.375 43.3125 90.6094 43.3125 103.125V112.5H118.312V103.125C118.312 90.6094 93.3281 84.375 80.8125 84.375ZM38.625 65.625V51.5625H29.25V65.625H15.1875V75H29.25V89.0625H38.625V75H52.6875V65.625M80.8125 75C85.7853 75 90.5544 73.0246 94.0707 69.5083C97.5871 65.9919 99.5625 61.2228 99.5625 56.25C99.5625 51.2772 97.5871 46.5081 94.0707 42.9917C90.5544 39.4754 85.7853 37.5 80.8125 37.5C75.8397 37.5 71.0706 39.4754 67.5542 42.9917C64.0379 46.5081 62.0625 51.2772 62.0625 56.25C62.0625 61.2228 64.0379 65.9919 67.5542 69.5083C71.0706 73.0246 75.8397 75 80.8125 75Z" fill="white"/>
<circle cx="126.75" cy="122.25" r="13.5" fill="#80869A" stroke="white" stroke-width="3"/>
<g clip-path="url(#clip0_28_608)">
<path d="M126.33 119.503L125.022 120.81C124.54 121.292 124.055 121.774 123.576 122.261C123.464 122.377 123.378 122.531 123.345 122.683C123.172 123.478 123.004 124.274 122.836 125.07L122.742 125.51C122.698 125.725 122.756 125.94 122.902 126.086C123.015 126.198 123.172 126.262 123.337 126.262C123.384 126.262 123.431 126.256 123.477 126.248L123.962 126.146C124.733 125.984 125.506 125.818 126.277 125.659C126.456 125.62 126.608 125.54 126.737 125.411C128.901 123.244 131.065 121.08 133.229 118.919C133.389 118.759 133.477 118.569 133.499 118.335C133.502 118.297 133.499 118.258 133.491 118.222C133.477 118.167 133.466 118.109 133.452 118.054C133.422 117.914 133.389 117.754 133.323 117.6C132.918 116.675 132.246 116.014 131.327 115.643C131.142 115.568 130.947 115.543 130.776 115.521L130.729 115.516C130.481 115.486 130.256 115.568 130.06 115.766C128.821 117.011 127.574 118.258 126.33 119.503ZM130.638 116.179C130.644 116.179 130.647 116.179 130.652 116.179L130.699 116.185C130.842 116.201 130.974 116.218 131.079 116.262C131.828 116.565 132.378 117.105 132.712 117.864C132.75 117.953 132.775 118.065 132.8 118.184C132.808 118.228 132.819 118.272 132.827 118.316C132.816 118.366 132.797 118.399 132.758 118.434C130.592 120.596 128.428 122.762 126.264 124.926C126.228 124.962 126.195 124.979 126.145 124.99C125.372 125.152 124.601 125.315 123.827 125.477L123.42 125.562L123.497 125.202C123.665 124.409 123.832 123.613 124.003 122.82C124.009 122.795 124.031 122.757 124.055 122.729C124.535 122.245 125.014 121.763 125.495 121.284L126.803 119.976C128.05 118.729 129.298 117.482 130.542 116.232C130.594 116.188 130.619 116.179 130.638 116.179Z" fill="white"/>
<path d="M121.071 118.511H125.878C126.065 118.511 126.217 118.36 126.217 118.173C126.217 117.986 126.065 117.834 125.878 117.834H121.071C120.479 117.834 120 118.316 120 118.905V127.919C120 128.511 120.482 128.99 121.071 128.99H130.082C130.674 128.99 131.153 128.508 131.153 127.919V123.308C131.153 123.12 131.002 122.969 130.815 122.969C130.627 122.969 130.476 123.12 130.476 123.308V127.919C130.476 128.137 130.297 128.316 130.079 128.316H121.071C120.853 128.316 120.675 128.137 120.675 127.919V118.908C120.675 118.69 120.853 118.511 121.071 118.511Z" fill="white"/>
</g>
<defs>
<clipPath id="clip0_28_608">
<rect width="13.5" height="13.5" fill="white" transform="translate(120 115.5)"/>
</clipPath>
</defs>
</svg>
