<svg width="422" height="42" viewBox="0 0 422 42" fill="none" xmlns="http://www.w3.org/2000/svg">
<path d="M15.3411 27.1957L15.3402 27.1948L8.80614 21.2855L15.3337 15.5844L15.3338 15.5845L15.3411 15.5778C15.7277 15.2263 15.7659 14.6323 15.4433 14.2381L15.4351 14.228L15.4263 14.2184C15.0749 13.8317 14.4808 13.7936 14.0866 14.1161L14.0801 14.1215L14.0738 14.127L7.4222 19.9536L7.4222 19.9536L7.42085 19.9548C6.61654 20.6645 6.59017 21.8708 7.39759 22.607L7.39909 22.6083L14.0497 28.6231C14.0499 28.6233 14.0501 28.6235 14.0504 28.6237C14.4486 28.985 15.0561 28.9434 15.4091 28.5551C15.7711 28.1569 15.7297 27.5489 15.3411 27.1957Z" fill="black" stroke="black"/>
<path d="M127.093 14.49V27H125.041V14.49H127.093ZM134.792 16.92C135.572 16.92 136.268 17.082 136.88 17.406C137.504 17.73 137.99 18.21 138.338 18.846C138.686 19.482 138.86 20.25 138.86 21.15V27H136.826V21.456C136.826 20.568 136.604 19.89 136.16 19.422C135.716 18.942 135.11 18.702 134.342 18.702C133.574 18.702 132.962 18.942 132.506 19.422C132.062 19.89 131.84 20.568 131.84 21.456V27H129.788V17.082H131.84V18.216C132.176 17.808 132.602 17.49 133.118 17.262C133.646 17.034 134.204 16.92 134.792 16.92ZM145.635 18.756H143.799V27H141.729V18.756H140.559V17.082H141.729V16.38C141.729 15.24 142.029 14.412 142.629 13.896C143.241 13.368 144.195 13.104 145.491 13.104V14.814C144.867 14.814 144.429 14.934 144.177 15.174C143.925 15.402 143.799 15.804 143.799 16.38V17.082H145.635V18.756ZM151.756 27.162C150.82 27.162 149.974 26.952 149.218 26.532C148.462 26.1 147.868 25.5 147.436 24.732C147.004 23.952 146.788 23.052 146.788 22.032C146.788 21.024 147.01 20.13 147.454 19.35C147.898 18.57 148.504 17.97 149.272 17.55C150.04 17.13 150.898 16.92 151.846 16.92C152.794 16.92 153.652 17.13 154.42 17.55C155.188 17.97 155.794 18.57 156.238 19.35C156.682 20.13 156.904 21.024 156.904 22.032C156.904 23.04 156.676 23.934 156.22 24.714C155.764 25.494 155.14 26.1 154.348 26.532C153.568 26.952 152.704 27.162 151.756 27.162ZM151.756 25.38C152.284 25.38 152.776 25.254 153.232 25.002C153.7 24.75 154.078 24.372 154.366 23.868C154.654 23.364 154.798 22.752 154.798 22.032C154.798 21.312 154.66 20.706 154.384 20.214C154.108 19.71 153.742 19.332 153.286 19.08C152.83 18.828 152.338 18.702 151.81 18.702C151.282 18.702 150.79 18.828 150.334 19.08C149.89 19.332 149.536 19.71 149.272 20.214C149.008 20.706 148.876 21.312 148.876 22.032C148.876 23.1 149.146 23.928 149.686 24.516C150.238 25.092 150.928 25.38 151.756 25.38ZM160.984 18.522C161.284 18.018 161.68 17.628 162.172 17.352C162.676 17.064 163.27 16.92 163.954 16.92V19.044H163.432C162.628 19.044 162.016 19.248 161.596 19.656C161.188 20.064 160.984 20.772 160.984 21.78V27H158.932V17.082H160.984V18.522ZM177.846 16.92C178.626 16.92 179.322 17.082 179.934 17.406C180.558 17.73 181.044 18.21 181.392 18.846C181.752 19.482 181.932 20.25 181.932 21.15V27H179.898V21.456C179.898 20.568 179.676 19.89 179.232 19.422C178.788 18.942 178.182 18.702 177.414 18.702C176.646 18.702 176.034 18.942 175.578 19.422C175.134 19.89 174.912 20.568 174.912 21.456V27H172.878V21.456C172.878 20.568 172.656 19.89 172.212 19.422C171.768 18.942 171.162 18.702 170.394 18.702C169.626 18.702 169.014 18.942 168.558 19.422C168.114 19.89 167.892 20.568 167.892 21.456V27H165.84V17.082H167.892V18.216C168.228 17.808 168.654 17.49 169.17 17.262C169.686 17.034 170.238 16.92 170.826 16.92C171.618 16.92 172.326 17.088 172.95 17.424C173.574 17.76 174.054 18.246 174.39 18.882C174.69 18.282 175.158 17.808 175.794 17.46C176.43 17.1 177.114 16.92 177.846 16.92ZM183.859 21.996C183.859 21 184.063 20.118 184.471 19.35C184.891 18.582 185.455 17.988 186.163 17.568C186.883 17.136 187.675 16.92 188.539 16.92C189.319 16.92 189.997 17.076 190.573 17.388C191.161 17.688 191.629 18.066 191.977 18.522V17.082H194.047V27H191.977V25.524C191.629 25.992 191.155 26.382 190.555 26.694C189.955 27.006 189.271 27.162 188.503 27.162C187.651 27.162 186.871 26.946 186.163 26.514C185.455 26.07 184.891 25.458 184.471 24.678C184.063 23.886 183.859 22.992 183.859 21.996ZM191.977 22.032C191.977 21.348 191.833 20.754 191.545 20.25C191.269 19.746 190.903 19.362 190.447 19.098C189.991 18.834 189.499 18.702 188.971 18.702C188.443 18.702 187.951 18.834 187.495 19.098C187.039 19.35 186.667 19.728 186.379 20.232C186.103 20.724 185.965 21.312 185.965 21.996C185.965 22.68 186.103 23.28 186.379 23.796C186.667 24.312 187.039 24.708 187.495 24.984C187.963 25.248 188.455 25.38 188.971 25.38C189.499 25.38 189.991 25.248 190.447 24.984C190.903 24.72 191.269 24.336 191.545 23.832C191.833 23.316 191.977 22.716 191.977 22.032ZM200.919 25.434C202.107 25.434 202.893 24.912 203.277 23.868H205.491C205.227 24.78 204.753 25.53 204.069 26.118C203.397 26.694 202.551 27.03 201.531 27.126V27.864C202.227 27.864 202.791 28.026 203.223 28.35C203.655 28.686 203.871 29.154 203.871 29.754C203.871 30.354 203.655 30.828 203.223 31.176C202.791 31.536 202.245 31.716 201.585 31.716H199.209V30.42H201.171C201.507 30.42 201.759 30.372 201.927 30.276C202.095 30.18 202.179 30.006 202.179 29.754C202.179 29.502 202.095 29.328 201.927 29.232C201.759 29.136 201.507 29.088 201.171 29.088H200.181V27.108C199.365 27.012 198.645 26.742 198.021 26.298C197.397 25.842 196.911 25.254 196.563 24.534C196.227 23.802 196.059 22.968 196.059 22.032C196.059 21.012 196.263 20.118 196.671 19.35C197.091 18.57 197.667 17.97 198.399 17.55C199.131 17.13 199.971 16.92 200.919 16.92C202.119 16.92 203.109 17.208 203.889 17.784C204.681 18.348 205.215 19.158 205.491 20.214H203.277C203.097 19.722 202.809 19.338 202.413 19.062C202.017 18.786 201.519 18.648 200.919 18.648C200.079 18.648 199.407 18.948 198.903 19.548C198.411 20.136 198.165 20.964 198.165 22.032C198.165 23.1 198.411 23.934 198.903 24.534C199.407 25.134 200.079 25.434 200.919 25.434ZM211.838 27.162C210.902 27.162 210.056 26.952 209.3 26.532C208.544 26.1 207.95 25.5 207.518 24.732C207.086 23.952 206.87 23.052 206.87 22.032C206.87 21.024 207.092 20.13 207.536 19.35C207.98 18.57 208.586 17.97 209.354 17.55C210.122 17.13 210.98 16.92 211.928 16.92C212.876 16.92 213.734 17.13 214.502 17.55C215.27 17.97 215.876 18.57 216.32 19.35C216.764 20.13 216.986 21.024 216.986 22.032C216.986 23.04 216.758 23.934 216.302 24.714C215.846 25.494 215.222 26.1 214.43 26.532C213.65 26.952 212.786 27.162 211.838 27.162ZM211.838 25.38C212.366 25.38 212.858 25.254 213.314 25.002C213.782 24.75 214.16 24.372 214.448 23.868C214.736 23.364 214.88 22.752 214.88 22.032C214.88 21.312 214.742 20.706 214.466 20.214C214.19 19.71 213.824 19.332 213.368 19.08C212.912 18.828 212.42 18.702 211.892 18.702C211.364 18.702 210.872 18.828 210.416 19.08C209.972 19.332 209.618 19.71 209.354 20.214C209.09 20.706 208.958 21.312 208.958 22.032C208.958 23.1 209.228 23.928 209.768 24.516C210.32 25.092 211.01 25.38 211.838 25.38ZM208.994 15.894C209.09 15.198 209.318 14.676 209.678 14.328C210.038 13.968 210.488 13.788 211.028 13.788C211.256 13.788 211.454 13.824 211.622 13.896C211.79 13.968 211.994 14.076 212.234 14.22C212.414 14.34 212.564 14.43 212.684 14.49C212.816 14.55 212.96 14.58 213.116 14.58C213.32 14.58 213.488 14.52 213.62 14.4C213.764 14.268 213.854 14.076 213.89 13.824H215.042C214.946 14.52 214.718 15.048 214.358 15.408C213.998 15.756 213.548 15.93 213.008 15.93C212.78 15.93 212.576 15.894 212.396 15.822C212.216 15.738 212.018 15.624 211.802 15.48C211.586 15.348 211.418 15.258 211.298 15.21C211.19 15.15 211.064 15.12 210.92 15.12C210.716 15.12 210.542 15.186 210.398 15.318C210.266 15.45 210.182 15.642 210.146 15.894H208.994ZM228.104 21.798C228.104 22.17 228.08 22.506 228.032 22.806H220.454C220.514 23.598 220.808 24.234 221.336 24.714C221.864 25.194 222.512 25.434 223.28 25.434C224.384 25.434 225.164 24.972 225.62 24.048H227.834C227.534 24.96 226.988 25.71 226.196 26.298C225.416 26.874 224.444 27.162 223.28 27.162C222.332 27.162 221.48 26.952 220.724 26.532C219.98 26.1 219.392 25.5 218.96 24.732C218.54 23.952 218.33 23.052 218.33 22.032C218.33 21.012 218.534 20.118 218.942 19.35C219.362 18.57 219.944 17.97 220.688 17.55C221.444 17.13 222.308 16.92 223.28 16.92C224.216 16.92 225.05 17.124 225.782 17.532C226.514 17.94 227.084 18.516 227.492 19.26C227.9 19.992 228.104 20.838 228.104 21.798ZM225.962 21.15C225.95 20.394 225.68 19.788 225.152 19.332C224.624 18.876 223.97 18.648 223.19 18.648C222.482 18.648 221.876 18.876 221.372 19.332C220.868 19.776 220.568 20.382 220.472 21.15H225.962ZM233.723 27.162C232.943 27.162 232.241 27.024 231.617 26.748C231.005 26.46 230.519 26.076 230.159 25.596C229.799 25.104 229.607 24.558 229.583 23.958H231.707C231.743 24.378 231.941 24.732 232.301 25.02C232.673 25.296 233.135 25.434 233.687 25.434C234.263 25.434 234.707 25.326 235.019 25.11C235.343 24.882 235.505 24.594 235.505 24.246C235.505 23.874 235.325 23.598 234.965 23.418C234.617 23.238 234.059 23.04 233.291 22.824C232.547 22.62 231.941 22.422 231.473 22.23C231.005 22.038 230.597 21.744 230.249 21.348C229.913 20.952 229.745 20.43 229.745 19.782C229.745 19.254 229.901 18.774 230.213 18.342C230.525 17.898 230.969 17.55 231.545 17.298C232.133 17.046 232.805 16.92 233.561 16.92C234.689 16.92 235.595 17.208 236.279 17.784C236.975 18.348 237.347 19.122 237.395 20.106H235.343C235.307 19.662 235.127 19.308 234.803 19.044C234.479 18.78 234.041 18.648 233.489 18.648C232.949 18.648 232.535 18.75 232.247 18.954C231.959 19.158 231.815 19.428 231.815 19.764C231.815 20.028 231.911 20.25 232.103 20.43C232.295 20.61 232.529 20.754 232.805 20.862C233.081 20.958 233.489 21.084 234.029 21.24C234.749 21.432 235.337 21.63 235.793 21.834C236.261 22.026 236.663 22.314 236.999 22.698C237.335 23.082 237.509 23.592 237.521 24.228C237.521 24.792 237.365 25.296 237.053 25.74C236.741 26.184 236.297 26.532 235.721 26.784C235.157 27.036 234.491 27.162 233.723 27.162ZM243.73 21.996C243.73 21 243.934 20.118 244.342 19.35C244.762 18.582 245.326 17.988 246.034 17.568C246.754 17.136 247.552 16.92 248.428 16.92C249.076 16.92 249.712 17.064 250.336 17.352C250.972 17.628 251.476 18 251.848 18.468V13.68H253.918V27H251.848V25.506C251.512 25.986 251.044 26.382 250.444 26.694C249.856 27.006 249.178 27.162 248.41 27.162C247.546 27.162 246.754 26.946 246.034 26.514C245.326 26.07 244.762 25.458 244.342 24.678C243.934 23.886 243.73 22.992 243.73 21.996ZM251.848 22.032C251.848 21.348 251.704 20.754 251.416 20.25C251.14 19.746 250.774 19.362 250.318 19.098C249.862 18.834 249.37 18.702 248.842 18.702C248.314 18.702 247.822 18.834 247.366 19.098C246.91 19.35 246.538 19.728 246.25 20.232C245.974 20.724 245.836 21.312 245.836 21.996C245.836 22.68 245.974 23.28 246.25 23.796C246.538 24.312 246.91 24.708 247.366 24.984C247.834 25.248 248.326 25.38 248.842 25.38C249.37 25.38 249.862 25.248 250.318 24.984C250.774 24.72 251.14 24.336 251.416 23.832C251.704 23.316 251.848 22.716 251.848 22.032ZM255.93 21.996C255.93 21 256.134 20.118 256.542 19.35C256.962 18.582 257.526 17.988 258.234 17.568C258.954 17.136 259.746 16.92 260.61 16.92C261.39 16.92 262.068 17.076 262.644 17.388C263.232 17.688 263.7 18.066 264.048 18.522V17.082H266.118V27H264.048V25.524C263.7 25.992 263.226 26.382 262.626 26.694C262.026 27.006 261.342 27.162 260.574 27.162C259.722 27.162 258.942 26.946 258.234 26.514C257.526 26.07 256.962 25.458 256.542 24.678C256.134 23.886 255.93 22.992 255.93 21.996ZM264.048 22.032C264.048 21.348 263.904 20.754 263.616 20.25C263.34 19.746 262.974 19.362 262.518 19.098C262.062 18.834 261.57 18.702 261.042 18.702C260.514 18.702 260.022 18.834 259.566 19.098C259.11 19.35 258.738 19.728 258.45 20.232C258.174 20.724 258.036 21.312 258.036 21.996C258.036 22.68 258.174 23.28 258.45 23.796C258.738 24.312 259.11 24.708 259.566 24.984C260.034 25.248 260.526 25.38 261.042 25.38C261.57 25.38 262.062 25.248 262.518 24.984C262.974 24.72 263.34 24.336 263.616 23.832C263.904 23.316 264.048 22.716 264.048 22.032ZM275.541 13.68V27H273.489V13.68H275.541ZM282.537 27.162C281.601 27.162 280.755 26.952 279.999 26.532C279.243 26.1 278.649 25.5 278.217 24.732C277.785 23.952 277.569 23.052 277.569 22.032C277.569 21.024 277.791 20.13 278.235 19.35C278.679 18.57 279.285 17.97 280.053 17.55C280.821 17.13 281.679 16.92 282.627 16.92C283.575 16.92 284.433 17.13 285.201 17.55C285.969 17.97 286.575 18.57 287.019 19.35C287.463 20.13 287.685 21.024 287.685 22.032C287.685 23.04 287.457 23.934 287.001 24.714C286.545 25.494 285.921 26.1 285.129 26.532C284.349 26.952 283.485 27.162 282.537 27.162ZM282.537 25.38C283.065 25.38 283.557 25.254 284.013 25.002C284.481 24.75 284.859 24.372 285.147 23.868C285.435 23.364 285.579 22.752 285.579 22.032C285.579 21.312 285.441 20.706 285.165 20.214C284.889 19.71 284.523 19.332 284.067 19.08C283.611 18.828 283.119 18.702 282.591 18.702C282.063 18.702 281.571 18.828 281.115 19.08C280.671 19.332 280.317 19.71 280.053 20.214C279.789 20.706 279.657 21.312 279.657 22.032C279.657 23.1 279.927 23.928 280.467 24.516C281.019 25.092 281.709 25.38 282.537 25.38ZM290.757 15.768C290.385 15.768 290.073 15.642 289.821 15.39C289.569 15.138 289.443 14.826 289.443 14.454C289.443 14.082 289.569 13.77 289.821 13.518C290.073 13.266 290.385 13.14 290.757 13.14C291.117 13.14 291.423 13.266 291.675 13.518C291.927 13.77 292.053 14.082 292.053 14.454C292.053 14.826 291.927 15.138 291.675 15.39C291.423 15.642 291.117 15.768 290.757 15.768ZM291.765 28.944C291.765 29.916 291.519 30.618 291.027 31.05C290.547 31.494 289.845 31.716 288.921 31.716H287.859V29.988H288.561C288.981 29.988 289.275 29.904 289.443 29.736C289.623 29.58 289.713 29.316 289.713 28.944V17.082H291.765V28.944ZM293.775 21.996C293.775 21 293.979 20.118 294.387 19.35C294.807 18.582 295.371 17.988 296.079 17.568C296.799 17.136 297.591 16.92 298.455 16.92C299.235 16.92 299.913 17.076 300.489 17.388C301.077 17.688 301.545 18.066 301.893 18.522V17.082H303.963V27H301.893V25.524C301.545 25.992 301.071 26.382 300.471 26.694C299.871 27.006 299.187 27.162 298.419 27.162C297.567 27.162 296.787 26.946 296.079 26.514C295.371 26.07 294.807 25.458 294.387 24.678C293.979 23.886 293.775 22.992 293.775 21.996ZM301.893 22.032C301.893 21.348 301.749 20.754 301.461 20.25C301.185 19.746 300.819 19.362 300.363 19.098C299.907 18.834 299.415 18.702 298.887 18.702C298.359 18.702 297.867 18.834 297.411 19.098C296.955 19.35 296.583 19.728 296.295 20.232C296.019 20.724 295.881 21.312 295.881 21.996C295.881 22.68 296.019 23.28 296.295 23.796C296.583 24.312 296.955 24.708 297.411 24.984C297.879 25.248 298.371 25.38 298.887 25.38C299.415 25.38 299.907 25.248 300.363 24.984C300.819 24.72 301.185 24.336 301.461 23.832C301.749 23.316 301.893 22.716 301.893 22.032Z" fill="black"/>
<path d="M387 10C380.923 10 376 14.9234 376 21C376 27.0766 380.923 32 387 32C393.077 32 398 27.0766 398 21C398 14.9234 393.077 10 387 10ZM387 14.2581C389.156 14.2581 390.903 16.0056 390.903 18.1613C390.903 20.3169 389.156 22.0645 387 22.0645C384.844 22.0645 383.097 20.3169 383.097 18.1613C383.097 16.0056 384.844 14.2581 387 14.2581ZM387 29.5161C384.396 29.5161 382.063 28.3363 380.502 26.4911C381.336 24.921 382.968 23.8387 384.871 23.8387C384.977 23.8387 385.084 23.8565 385.186 23.8875C385.762 24.0738 386.366 24.1935 387 24.1935C387.634 24.1935 388.242 24.0738 388.814 23.8875C388.916 23.8565 389.023 23.8387 389.129 23.8387C391.032 23.8387 392.664 24.921 393.498 26.4911C391.937 28.3363 389.604 29.5161 387 29.5161Z" fill="black"/>
</svg>
