<svg width="182" height="50" viewBox="0 0 182 50" fill="none" xmlns="http://www.w3.org/2000/svg">
<rect x="0.5" y="0.5" width="49" height="49" rx="24.5" stroke="#3B5999"/>
<path d="M27 26.5H29.5L30.5 22.5H27V20.5C27 19.47 27 18.5 29 18.5H30.5V15.14C30.174 15.097 28.943 15 27.643 15C24.928 15 23 16.657 23 19.7V22.5H20V26.5H23V35H27V26.5Z" fill="#3B5999"/>
<rect x="66.5" y="0.5" width="49" height="49" rx="24.5" stroke="#55ACEE"/>
<path d="M102.456 17.4429C102.079 17.6102 101.691 17.7513 101.295 17.8659C101.764 17.3356 102.122 16.7116 102.34 16.0287C102.389 15.8757 102.338 15.7081 102.213 15.608C102.087 15.5078 101.912 15.4958 101.774 15.5778C100.933 16.0767 100.025 16.4352 99.0737 16.6449C98.1152 15.7083 96.8133 15.1752 95.4674 15.1752C92.6265 15.1752 90.3152 17.4864 90.3152 20.3273C90.3152 20.551 90.3294 20.7735 90.3574 20.9929C86.8321 20.6834 83.5548 18.9507 81.3042 16.19C81.224 16.0916 81.1004 16.0386 80.9739 16.0487C80.8473 16.0586 80.7336 16.13 80.6696 16.2397C80.2132 17.0229 79.9719 17.9188 79.9719 18.8302C79.9719 20.0716 80.4151 21.2495 81.198 22.1699C80.96 22.0874 80.7289 21.9844 80.5085 21.862C80.3901 21.7961 80.2456 21.7971 80.128 21.8645C80.0103 21.9319 79.9366 22.056 79.9335 22.1915C79.9329 22.2144 79.9329 22.2372 79.9329 22.2604C79.9329 24.1134 80.9302 25.7817 82.455 26.691C82.324 26.6779 82.1931 26.6589 82.063 26.6341C81.9289 26.6085 81.7911 26.6555 81.7006 26.7577C81.6101 26.8599 81.5801 27.0024 81.6218 27.1324C82.1862 28.8945 83.6393 30.1906 85.3959 30.5857C83.939 31.4983 82.2728 31.9763 80.5238 31.9763C80.1588 31.9763 79.7918 31.9548 79.4326 31.9123C79.2541 31.8911 79.0835 31.9965 79.0227 32.1662C78.9619 32.3359 79.0263 32.5252 79.1782 32.6225C81.4251 34.0632 84.0232 34.8247 86.6915 34.8247C91.9369 34.8247 95.2184 32.3512 97.0474 30.2761C99.3282 27.6887 100.636 24.2639 100.636 20.88C100.636 20.7386 100.634 20.5958 100.63 20.4535C101.53 19.7756 102.304 18.9551 102.935 18.012C103.031 17.8688 103.02 17.6795 102.909 17.5477C102.798 17.4158 102.614 17.3731 102.456 17.4429Z" fill="#55ACEE"/>
<rect x="132.5" y="0.5" width="49" height="49" rx="24.5" stroke="#DD4B39"/>
<path fill-rule="evenodd" clip-rule="evenodd" d="M157.21 23.5V27.1H163.165C162.925 28.645 161.365 31.63 157.21 31.63C153.625 31.63 150.7 28.66 150.7 25C150.7 21.34 153.625 18.37 157.21 18.37C159.25 18.37 160.615 19.24 161.395 19.99L164.245 17.245C162.415 15.535 160.045 14.5 157.21 14.5C151.405 14.5 146.71 19.195 146.71 25C146.71 30.805 151.405 35.5 157.21 35.5C163.27 35.5 167.29 31.24 167.29 25.24C167.29 24.55 167.215 24.025 167.125 23.5H157.21Z" fill="#DD4B39"/>
</svg>
